
		<svg xmlns="http://www.w3.org/2000/svg" xmlns:xlink="http://www.w3.org/1999/xlink" version="1.1" width="3185.185185185185" height="1092.5925925925926">
			
			<g transform="scale(9.25925925925926) translate(10, 10)">
				<defs id="SvgjsDefs9711"><linearGradient id="SvgjsLinearGradient9717"><stop id="SvgjsStop9718" stop-color="#7f00ff" offset="0"/><stop id="SvgjsStop9719" stop-color="#e100ff" offset="1"/></linearGradient><linearGradient id="SvgjsLinearGradient9720"><stop id="SvgjsStop9721" stop-color="#7f00ff" offset="0"/><stop id="SvgjsStop9722" stop-color="#e100ff" offset="1"/></linearGradient><linearGradient id="SvgjsLinearGradient9723"><stop id="SvgjsStop9724" stop-color="#7f00ff" offset="0"/><stop id="SvgjsStop9725" stop-color="#e100ff" offset="1"/></linearGradient></defs><g id="SvgjsG9712" featureKey="root" fill="#000"/><g id="SvgjsG9713" featureKey="symbol1" fill="#000" transform="matrix(1.065989806432199,0,0,1.065989806432199,-11.29949235482415,-4.2994923548241495)"><g id="SvgjsG9714" transform="matrix(1,0,0,1,0,0)"><path xmlns="http://www.w3.org/2000/svg" d="M77.8,22.2L50,10.6L22.2,22.2L10.6,50l11.5,27.8L50,89.4l27.8-11.5L89.4,50L77.8,22.2z M86.9,48.5l-12.5-3.4  c0-0.2,0-0.4,0-0.6c0-2-1.1-3.8-2.7-4.8l5.6-14.7L86.9,48.5z M45.8,60.3c-0.3-2.3-1.6-4.2-3.5-5.3l5-12.1c0.9,0.3,1.8,0.4,2.7,0.4  s1.9-0.1,2.7-0.4l6.2,15c-0.8,0.6-1.4,1.4-1.6,2.4H45.8z M61.2,57.2c-0.2,0-0.4,0-0.7,0.1l-6.2-15c1.3-0.7,2.3-1.7,3.1-2.9l6.2,3.4  c-0.2,0.6-0.3,1.2-0.3,1.8c0,1.9,1,3.6,2.4,4.6L62,57.3C61.7,57.2,61.5,57.2,61.2,57.2z M38.7,54c-0.8,0-1.6,0.1-2.3,0.4l-5.6-11.6  c0.9-0.7,1.5-1.8,1.5-3.1c0,0,0,0,0-0.1l9.3-2.3c0.7,2.1,2.2,3.9,4.2,4.9l-5,12C40.1,54.1,39.4,54,38.7,54z M68.8,39.1  c-1.8,0-3.3,0.8-4.3,2.1l-6.2-3.4c0.5-1.1,0.7-2.3,0.7-3.5c0-1-0.2-1.9-0.5-2.8l17-7.1L70,39.2C69.6,39.1,69.2,39.1,68.8,39.1z   M41.1,35.6l-9.3,2.3c-0.7-1.3-2-2.2-3.6-2.2c-0.1,0-0.2,0-0.3,0l-3.6-11.3l17.1,7.1c-0.3,0.9-0.5,1.8-0.5,2.8  C41,34.8,41,35.2,41.1,35.6z M25.4,42.5c0.7,0.7,1.7,1.2,2.8,1.2c0.3,0,0.6,0,0.9-0.1l5.6,11.6c-1,0.6-1.8,1.5-2.4,2.5l-18.7-7.7  L25.4,42.5z M63.6,58l3.8-8.1c0.5,0.1,1,0.2,1.5,0.2c2.2,0,4.2-1.3,5-3.2l12.1,3.2L64.5,59C64.3,58.6,63.9,58.3,63.6,58z M76.7,24  L76.7,24L76.7,24L76.7,24z M57.8,29.9c-1.4-2.5-4-4.2-6.9-4.5V12.9l24,9.9L57.8,29.9z M49.1,12.9v12.5c-3,0.3-5.5,2-6.9,4.5  l-17.1-7.1L49.1,12.9z M22.8,25.2l3.5,11c-1.2,0.7-2,2-2,3.4c0,0.5,0.1,0.9,0.3,1.4l-11.2,7.1L22.8,25.2z M12.7,49.5L12.7,49.5  L12.7,49.5L12.7,49.5z M13.2,51.6l18.5,7.7c-0.2,0.6-0.3,1.2-0.3,1.9c0,1.7,0.6,3.2,1.6,4.5l-9.9,10L13.2,51.6z M23.5,76.5  L23.5,76.5L23.5,76.5L23.5,76.5z M24.4,76.9l9.9-10c1.2,0.9,2.7,1.5,4.4,1.5c0.7,0,1.4-0.1,2-0.3l7.7,18.7L24.4,76.9z M42.3,67.4  c1.9-1.1,3.3-3.1,3.5-5.4h11.5c0.2,1,0.8,1.9,1.7,2.4L50,86.1L42.3,67.4z M60.6,65.1c0.2,0,0.4,0.1,0.6,0.1c0.8,0,1.5-0.2,2.1-0.6  l12.3,12.3l-24,9.9L60.6,65.1z M76.9,75.6L64.5,63.3c0.4-0.6,0.6-1.3,0.6-2.1c0-0.2,0-0.4-0.1-0.6l21.7-9L76.9,75.6z M87.3,49.5  L87.3,49.5L87.3,49.5L87.3,49.5z"/></g></g><g id="SvgjsG9715" featureKey="text1" fill="#000" transform="matrix(3.291351102460213,0,0,3.291351102460213,101.0377821244596,-22.913507885725117)"><path d="M1.1 13.9 l0 -0.6 c0 -1.9 1.4 -3.3 3.5 -3.3 l5.5 0 l0 0.9 l-0.4 0.4 l-5.1 0 c-1.1 0 -2 0.9 -2 2 l0 0.6 c0 1.1 0.6 1.68 1.6 1.9 l3.7 0.8 c1.4 0.3 2.5 1.4 2.5 3.2 l0 0.9 c0 1.9 -1.4 3.3 -3.5 3.3 l-6 0 l0 -1.3 l6 0 c1.1 0 2 -0.9 2 -2 l0 -0.9 c0 -1.1 -0.6 -1.68 -1.6 -1.9 l-3.7 -0.8 c-1.4 -0.3 -2.5 -1.4 -2.5 -3.2 z  M13.335 10 l1.4 0 l0 3.8 l4.1 0 c1.8 0 3 1.2 3 2.8 l0 7.4 l-1.4 0 l0 -7.4 c0 -0.9 -0.7 -1.6 -1.6 -1.6 l-4.1 0 l0 9 l-1.4 0 l0 -14 z M33.07000000000001 24 l-4.8 0 c-1.9 0 -3 -1.2 -3 -2.8 l0 -4.8 c0 -1.6 1.2 -2.8 3 -2.8 l2.2 0 c1.8 0 3 1.2 3 2.8 l0 3.1 l-6.8 0 l0 1.7 c0 0.9 0.7 1.6 1.6 1.6 l4.8 0 l0 1.2 z M26.670000000000005 16.4 l0 1.9 l5.4 0 l0 -1.9 c0 -0.9 -0.7 -1.6 -1.6 -1.6 l-2.2 0 c-0.9 0 -1.6 0.7 -1.6 1.6 z M44.50500000000001 24 l-4.8 0 c-1.9 0 -3 -1.2 -3 -2.8 l0 -4.8 c0 -1.6 1.2 -2.8 3 -2.8 l2.2 0 c1.8 0 3 1.2 3 2.8 l0 3.1 l-6.8 0 l0 1.7 c0 0.9 0.7 1.6 1.6 1.6 l4.8 0 l0 1.2 z M38.105000000000004 16.4 l0 1.9 l5.4 0 l0 -1.9 c0 -0.9 -0.7 -1.6 -1.6 -1.6 l-2.2 0 c-0.9 0 -1.6 0.7 -1.6 1.6 z M52.040000000000006 13.6 l1.8 0 c1.8 0 3 1.2 3 2.8 l0 4.8 c0 1.6 -1.2 2.8 -3 2.8 l-4.1 0 l0 3.4 l-1.4 0 l0 -13.6 l0.9 0 l0.2 1.4 l0.1 0 s0.8 -1.6 2.5 -1.6 z M53.84000000000001 14.8 l-1.8 0 c-1.5 0 -2.3 1.8 -2.3 1.8 l0 6.2 l4.1 0 c0.9 0 1.6 -0.7 1.6 -1.6 l0 -4.8 c0 -0.9 -0.7 -1.6 -1.6 -1.6 z M67.67500000000001 24 l-0.9 0 l-0.2 -1.4 l-0.1 0 s-0.8 1.6 -2.5 1.6 l-1.6 0 c-1.9 0 -3 -1.2 -3 -2.8 l0 -0.6 c0 -1.6 1.2 -2.8 3 -2.8 l3.9 0 l0 -1.4 c0 -0.9 -0.7 -1.6 -1.6 -1.6 l-4.4 0 l0 -1.2 l4.4 0 c1.8 0 3 1.2 3 2.8 l0 7.4 z M62.375000000000014 23 l1.6 0 c1.5 0 2.3 -1.8 2.3 -1.8 l0 -2 l-3.9 0 c-0.9 0 -1.6 0.7 -1.6 1.6 l0 0.6 c0 0.9 0.7 1.6 1.6 1.6 z"/></g><g id="SvgjsG9716" featureKey="text3" fill="#000" transform="matrix(0.7023135353497999,0,0,0.7023135353497999,124.7471670335051,78.55866360980814)"><path d="M0.62 4.98 l10.64 0 l0 1.46 c0 0.14 -0.12 0.26 -0.26 0.26 l-4.28 0 l0 13.04 c0 0.14 -0.1 0.26 -0.26 0.26 l-1.62 0 l0 -13.3 l-4.48 0 l0 -1.46 c0 -0.14 0.12 -0.26 0.26 -0.26 z M22.119999999999997 4.98 l1.62 0 l0 15.02 l-1.62 0 c-0.14 0 -0.26 -0.12 -0.26 -0.26 l0 -6.4 l-7.18 0 l0 6.4 c0 0.14 -0.12 0.26 -0.26 0.26 l-1.62 0 l0 -15.02 l1.62 0 c0.14 0 0.26 0.12 0.26 0.26 l0 6.38 l7.18 0 l0 -6.38 c0 -0.14 0.12 -0.26 0.26 -0.26 z M29.560000000000002 6.699999999999999 c-0.84 0 -1.52 0.68 -1.52 1.52 l0 3.8 c0.2 -0.24 0.56 -0.4 0.98 -0.4 l6.58 0 l0 1.46 c0 0.14 -0.12 0.26 -0.26 0.26 l-7.3 0 l0 3.42 c0 0.84 0.68 1.52 1.52 1.52 l6.48 0 c0.14 0 0.26 0.12 0.26 0.26 l0 1.46 l-6.74 0 c-1.88 0 -3.4 -1.52 -3.4 -3.4 l0 -8.22 c0 -1.88 1.52 -3.4 3.4 -3.4 l6.74 0 l0 1.46 c0 0.14 -0.12 0.26 -0.26 0.26 l-6.48 0 z  M53.86 5.119999999999999 l5.24 14.88 l-1.64 0 c-0.18 0 -0.32 -0.12 -0.36 -0.26 l-1.34 -3.86 l-7.64 0 l-1.34 3.86 c-0.04 0.14 -0.2 0.26 -0.36 0.26 l-1.64 0 l4.88 -13.9 c0.24 -0.66 0.86 -1.12 1.58 -1.12 l2.38 0 c0.1 0 0.2 0.06 0.24 0.14 z M48.72 14.16 l6.44 0 l-2.6 -7.46 l-0.98 0 c-0.16 0 -0.3 0.1 -0.36 0.26 z M62.31999999999999 5 c0.2 0 0.44 0.14 0.54 0.32 l4.98 9.12 l5 -9.12 c0.1 -0.18 0.34 -0.32 0.54 -0.32 l1.4 0 c0.14 0 0.26 0.1 0.26 0.26 l0 14.72 l-1.62 0 c-0.14 0 -0.26 -0.12 -0.26 -0.26 l0 -11.68 l-4.18 7.94 c-0.08 0.14 -0.24 0.24 -0.4 0.24 l-1.46 0 c-0.16 0 -0.32 -0.1 -0.4 -0.24 l-4.18 -7.94 l0 11.68 c0 0.14 -0.12 0.26 -0.26 0.26 l-1.62 0 l0 -14.72 c0 -0.16 0.12 -0.26 0.26 -0.26 l1.4 0 z M78.7 20 c-0.64 0 -1.16 -0.52 -1.16 -1.16 l0 -12.74 c0 -0.62 0.5 -1.12 1.12 -1.12 l0.32 0 l6.08 0 c1.88 0 3.4 1.52 3.4 3.4 l0 1.52 c0 0.96 -0.76 2.24 -1.84 2.46 c1.08 0.28 1.84 1.5 1.84 2.46 l0 1.76 c0 1.88 -1.52 3.42 -3.4 3.42 l-6.36 0 z M86.58 16.740000000000002 l0 -2 c0 -0.84 -0.68 -1.52 -1.52 -1.52 l-5.64 0 l0 4.68 c0 0.2 0.16 0.38 0.38 0.38 l5.26 0 c0.84 0 1.52 -0.7 1.52 -1.54 z M79.42 7.08 l0 4.42 l5.64 0 c0.84 0 1.52 -0.68 1.52 -1.52 l0 -1.76 c0 -0.84 -0.68 -1.52 -1.52 -1.52 l-5.26 0 c-0.22 0 -0.38 0.16 -0.38 0.38 z M91.39999999999999 20 c-0.14 0 -0.26 -0.12 -0.26 -0.26 l0 -14.76 l1.62 0 c0.14 0 0.26 0.12 0.26 0.26 l0 14.76 l-1.62 0 z M95.16 4.98 l10.64 0 l0 1.46 c0 0.14 -0.12 0.26 -0.26 0.26 l-4.28 0 l0 13.04 c0 0.14 -0.1 0.26 -0.26 0.26 l-1.62 0 l0 -13.3 l-4.48 0 l0 -1.46 c0 -0.14 0.12 -0.26 0.26 -0.26 z M108.01999999999998 20 c-0.14 0 -0.26 -0.12 -0.26 -0.26 l0 -14.76 l1.62 0 c0.14 0 0.26 0.12 0.26 0.26 l0 14.76 l-1.62 0 z M120.25999999999998 20.08 l-4.52 0 c-1.88 0 -3.4 -1.52 -3.4 -3.4 l0 -8.38 c0 -1.88 1.52 -3.4 3.4 -3.4 l4.52 0 c1.86 0 3.4 1.52 3.4 3.4 l0 8.38 c0 1.88 -1.54 3.4 -3.4 3.4 z M115.73999999999998 6.619999999999999 c-0.84 0 -1.52 0.68 -1.52 1.52 l0 8.7 c0 0.84 0.68 1.52 1.52 1.52 l4.52 0 c0.84 0 1.52 -0.68 1.52 -1.52 l0 -8.7 c0 -0.84 -0.68 -1.52 -1.52 -1.52 l-4.52 0 z M134.38 13.7 l1.82 3.58 c-0.2 -1.56 -0.2 -2.82 -0.3 -4.24 l0 -7.8 c0 -0.14 0.12 -0.26 0.26 -0.26 l1.62 0 l0 15.02 l-1.74 0 c-0.14 0 -0.32 -0.12 -0.38 -0.24 l-6.84 -12.74 c-0.1 -0.18 -0.34 -0.32 -0.54 -0.32 l-0.34 0 l0 13.04 c0 0.14 -0.12 0.26 -0.26 0.26 l-1.62 0 l0 -14.76 c0 -0.14 0.12 -0.26 0.26 -0.26 l2.28 0 c0.64 0 1.4 0.46 1.7 1.02 z  M147.20000000000002 4.98 l10.64 0 l0 1.46 c0 0.14 -0.12 0.26 -0.26 0.26 l-4.28 0 l0 13.04 c0 0.14 -0.1 0.26 -0.26 0.26 l-1.62 0 l0 -13.3 l-4.48 0 l0 -1.46 c0 -0.14 0.12 -0.26 0.26 -0.26 z M167.28 20.08 l-4.52 0 c-1.88 0 -3.4 -1.52 -3.4 -3.4 l0 -8.38 c0 -1.88 1.52 -3.4 3.4 -3.4 l4.52 0 c1.86 0 3.4 1.52 3.4 3.4 l0 8.38 c0 1.88 -1.54 3.4 -3.4 3.4 z M162.76000000000002 6.619999999999999 c-0.84 0 -1.52 0.68 -1.52 1.52 l0 8.7 c0 0.84 0.68 1.52 1.52 1.52 l4.52 0 c0.84 0 1.52 -0.68 1.52 -1.52 l0 -8.7 c0 -0.84 -0.68 -1.52 -1.52 -1.52 l-4.52 0 z  M184.06 6.699999999999999 c-0.84 0 -1.52 0.68 -1.52 1.52 l0 3.8 c0.2 -0.24 0.56 -0.4 0.98 -0.4 l6.58 0 l0 1.46 c0 0.14 -0.12 0.26 -0.26 0.26 l-7.3 0 l0 3.42 c0 0.84 0.68 1.52 1.52 1.52 l6.48 0 c0.14 0 0.26 0.12 0.26 0.26 l0 1.46 l-6.74 0 c-1.88 0 -3.4 -1.52 -3.4 -3.4 l0 -8.22 c0 -1.88 1.52 -3.4 3.4 -3.4 l6.74 0 l0 1.46 c0 0.14 -0.12 0.26 -0.26 0.26 l-6.48 0 z M198.16 17.46 l4.24 -12.24 c0.06 -0.12 0.2 -0.24 0.34 -0.24 l1.74 0 l-5.2 14.76 c-0.04 0.14 -0.2 0.26 -0.34 0.26 l-1.58 0 c-0.14 0 -0.3 -0.12 -0.34 -0.26 l-5.2 -14.76 l1.74 0 c0.14 0 0.3 0.12 0.34 0.24 z M213.79999999999998 20.08 l-4.52 0 c-1.88 0 -3.4 -1.52 -3.4 -3.4 l0 -8.38 c0 -1.88 1.52 -3.4 3.4 -3.4 l4.52 0 c1.86 0 3.4 1.52 3.4 3.4 l0 8.38 c0 1.88 -1.54 3.4 -3.4 3.4 z M209.28 6.619999999999999 c-0.84 0 -1.52 0.68 -1.52 1.52 l0 8.7 c0 0.84 0.68 1.52 1.52 1.52 l4.52 0 c0.84 0 1.52 -0.68 1.52 -1.52 l0 -8.7 c0 -0.84 -0.68 -1.52 -1.52 -1.52 l-4.52 0 z M223.01999999999998 20 c-1.88 0 -3.42 -1.56 -3.42 -3.46 l0 -11.3 c0 -0.14 0.12 -0.26 0.26 -0.26 l1.62 0 l0 11.74 c0 0.86 0.7 1.56 1.54 1.56 l6.24 0 c0.14 0 0.26 0.12 0.26 0.26 l0 1.46 l-6.5 0 z M236.64 17.46 l4.24 -12.24 c0.06 -0.12 0.2 -0.24 0.34 -0.24 l1.74 0 l-5.2 14.76 c-0.04 0.14 -0.2 0.26 -0.34 0.26 l-1.58 0 c-0.14 0 -0.3 -0.12 -0.34 -0.26 l-5.2 -14.76 l1.74 0 c0.14 0 0.3 0.12 0.34 0.24 z M247.77999999999997 6.699999999999999 c-0.84 0 -1.52 0.68 -1.52 1.52 l0 3.8 c0.2 -0.24 0.56 -0.4 0.98 -0.4 l6.58 0 l0 1.46 c0 0.14 -0.12 0.26 -0.26 0.26 l-7.3 0 l0 3.42 c0 0.84 0.68 1.52 1.52 1.52 l6.48 0 c0.14 0 0.26 0.12 0.26 0.26 l0 1.46 l-6.74 0 c-1.88 0 -3.4 -1.52 -3.4 -3.4 l0 -8.22 c0 -1.88 1.52 -3.4 3.4 -3.4 l6.74 0 l0 1.46 c0 0.14 -0.12 0.26 -0.26 0.26 l-6.48 0 z"/></g>
			</g>
		</svg>
	